<svg width="107" height="127" viewBox="0 0 107 127" fill="none" xmlns="http://www.w3.org/2000/svg">
<mask id="mask0_59_2848" style="mask-type:alpha" maskUnits="userSpaceOnUse" x="1" y="14" width="106" height="114">
<path d="M54 15C54.0223 16.908 54.0237 18.9504 54 21.1037V127H2V115C5.83333 115.333 16.5 116 27 112C48.4602 102.669 53.6695 51.1154 54 21.1037V15Z" fill="#191717" stroke="#191717"/>
<path d="M54.0173 15C53.995 16.908 53.9936 18.9504 54.0173 21.1037V127H106.017V115C102.184 115.333 91.5173 116 81.0173 112C59.557 102.669 54.3478 51.1154 54.0173 21.1037V15Z" fill="#191717" stroke="#191717"/>
</mask>
<g mask="url(#mask0_59_2848)">
<path d="M107 112C107 119.732 83.0472 126 53.5 126C23.9528 126 0 119.732 0 112C0 104.268 23.9528 4 53.5 4C83.0472 4 107 104.268 107 112Z" fill="#191717"/>
</g>
<path d="M53.5 99.5C68.2436 99.5 81.5746 101.064 91.2041 103.584C96.0222 104.845 99.8853 106.338 102.532 107.976C105.207 109.63 106.5 111.342 106.5 113C106.5 114.658 105.207 116.37 102.532 118.024C99.8853 119.662 96.0222 121.155 91.2041 122.416C81.5746 124.936 68.2436 126.5 53.5 126.5C38.7564 126.5 25.4254 124.936 15.7959 122.416C10.9778 121.155 7.11469 119.662 4.46777 118.024C1.79343 116.37 0.5 114.658 0.5 113C0.5 111.342 1.79343 109.63 4.46777 107.976C7.11469 106.338 10.9778 104.845 15.7959 103.584C25.4254 101.064 38.7564 99.5 53.5 99.5Z" stroke="#191717"/>
<path d="M53.5 78.5C68.2436 78.5 81.5746 80.0641 91.2041 82.584C96.0222 83.8448 99.8853 85.3381 102.532 86.9756C105.207 88.6302 106.5 90.3418 106.5 92C106.5 93.6582 105.207 95.3698 102.532 97.0244C99.8853 98.6619 96.0222 100.155 91.2041 101.416C81.5746 103.936 68.2436 105.5 53.5 105.5C38.7564 105.5 25.4254 103.936 15.7959 101.416C10.9778 100.155 7.11469 98.6619 4.46777 97.0244C1.79343 95.3698 0.5 93.6582 0.5 92C0.5 90.3418 1.79343 88.6302 4.46777 86.9756C7.11469 85.3381 10.9778 83.8448 15.7959 82.584C25.4254 80.0641 38.7564 78.5 53.5 78.5Z" stroke="#191717"/>
<path d="M53.5 59.5C68.2436 59.5 81.5746 61.0641 91.2041 63.584C96.0222 64.8448 99.8853 66.3381 102.532 67.9756C105.207 69.6302 106.5 71.3418 106.5 73C106.5 74.6582 105.207 76.3698 102.532 78.0244C99.8853 79.6619 96.0222 81.1552 91.2041 82.416C81.5746 84.9359 68.2436 86.5 53.5 86.5C38.7564 86.5 25.4254 84.9359 15.7959 82.416C10.9778 81.1552 7.11469 79.6619 4.46777 78.0244C1.79343 76.3698 0.5 74.6582 0.5 73C0.5 71.3418 1.79343 69.6302 4.46777 67.9756C7.11469 66.3381 10.9778 64.8448 15.7959 63.584C25.4254 61.0641 38.7564 59.5 53.5 59.5Z" stroke="#191717"/>
<path d="M53.5 38.5C68.2436 38.5 81.5746 40.0641 91.2041 42.584C96.0222 43.8448 99.8853 45.3381 102.532 46.9756C105.207 48.6302 106.5 50.3418 106.5 52C106.5 53.6582 105.207 55.3698 102.532 57.0244C99.8853 58.6619 96.0222 60.1552 91.2041 61.416C81.5746 63.9359 68.2436 65.5 53.5 65.5C38.7564 65.5 25.4254 63.9359 15.7959 61.416C10.9778 60.1552 7.11469 58.6619 4.46777 57.0244C1.79343 55.3698 0.5 53.6582 0.5 52C0.5 50.3418 1.79343 48.6302 4.46777 46.9756C7.11469 45.3381 10.9778 43.8448 15.7959 42.584C25.4254 40.0641 38.7564 38.5 53.5 38.5Z" stroke="#191717"/>
<path d="M53.5 19.5C68.2436 19.5 81.5746 21.0641 91.2041 23.584C96.0222 24.8448 99.8853 26.3381 102.532 27.9756C105.207 29.6302 106.5 31.3418 106.5 33C106.5 34.6582 105.207 36.3698 102.532 38.0244C99.8853 39.6619 96.0222 41.1552 91.2041 42.416C81.5746 44.9359 68.2436 46.5 53.5 46.5C38.7564 46.5 25.4254 44.9359 15.7959 42.416C10.9778 41.1552 7.11469 39.6619 4.46777 38.0244C1.79343 36.3698 0.5 34.6582 0.5 33C0.5 31.3418 1.79343 29.6302 4.46777 27.9756C7.11469 26.3381 10.9778 24.8448 15.7959 23.584C25.4254 21.0641 38.7564 19.5 53.5 19.5Z" stroke="#191717"/>
<path d="M54 0L55.1889 7.2177C55.7462 10.6016 58.3984 13.2538 61.7823 13.8111L69 15L61.7823 16.1889C58.3984 16.7462 55.7462 19.3984 55.1889 22.7823L54 30L52.8111 22.7823C52.2538 19.3984 49.6016 16.7462 46.2177 16.1889L39 15L46.2177 13.8111C49.6016 13.2538 52.2538 10.6016 52.8111 7.2177L54 0Z" fill="#191717"/>
</svg>
