<svg width="105" height="107" viewBox="0 0 105 107" fill="none" xmlns="http://www.w3.org/2000/svg">
<path d="M37.494 18.8496C44.1941 7.3526 60.8045 7.35259 67.5047 18.8496L99.2684 73.3555C103.445 80.5223 101.998 90.3086 93.7596 94.3662C85.0503 98.6556 71.1171 103.474 52.4998 103.474C33.8823 103.474 19.9484 98.6556 11.2391 94.3662C3.00042 90.3085 1.55365 80.5213 5.73029 73.3545L37.494 18.8496Z" fill="#ED8514" stroke="#191717" stroke-width="6.947"/>
<rect x="29.9216" y="81.356" width="45.1555" height="6.77966" rx="3.38983" fill="#191717"/>
<path d="M31.6583 30.5085H72.4719" stroke="#191717" stroke-width="1.73675"/>
<path d="M26.4481 37.2881H78.5506" stroke="#191717" stroke-width="3.4735"/>
<path d="M30.79 84.7458H102.865" stroke="#191717" stroke-width="1.73675"/>
<path d="M61.5569 49.1525H43.4418C42.1447 49.1525 40.9558 49.8752 40.3585 51.0265L34.2902 62.7235C33.0906 65.0357 34.7686 67.7966 37.3734 67.7966H67.6252C70.23 67.7966 71.908 65.0357 70.7085 62.7235L64.6401 51.0265C64.0429 49.8752 62.8539 49.1525 61.5569 49.1525Z" fill="#191717" stroke="#191717" stroke-width="1.73675"/>
<path d="M81.1557 48.3051H74.2209C71.5305 48.3051 69.8615 51.2317 71.2313 53.5472L74.1464 58.4746" stroke="#191717" stroke-width="2"/>
<path d="M22.9746 49.1525H29.9095C32.5998 49.1525 34.2688 52.0792 32.899 54.3946L29.9839 59.322" stroke="#191717" stroke-width="2"/>
</svg>
